<svg
  xmlns="http://www.w3.org/2000/svg"
  xmlns:xlink="http://www.w3.org/1999/xlink"
  version="1.1"
  id="Layer_1"
  x="0px"
  y="0px"
  viewBox="0 0 64 64"
  enable-background="new 0 0 64 64"
  xml:space="preserve"
  width="64px"
  height="64px"
>
  <circle fill="#61dafb" cx="32" cy="32" r="32" />
  <g>
    <path
      fill="#FFFFFF"
      d="M45.732,33.793c-2.518,0-4.788,0.848-6.618,2.264l-13.08-7.715c0.042-0.289,0.07-0.582,0.07-0.88    c0-0.298-0.028-0.591-0.07-0.88l13.08-7.715c1.83,1.416,4.1,2.264,6.618,2.264c6.204,0,11.267-5.063,11.267-11.267    S51.936,0,45.732,0c-6.204,0-11.267,5.063-11.267,11.267c0,0.298,0.028,0.591,0.07,0.88l-13.08,7.715    c-1.83-1.416-4.1-2.264-6.618-2.264C8.703,17.598,3.64,22.661,3.64,28.865s5.063,11.267,11.267,11.267    c2.518,0,4.788-0.848,6.618-2.264l13.08,7.715c-0.042,0.289-0.07,0.582-0.07,0.88c0,0.298,0.028,0.591,0.07,0.88l-13.08,7.715    c-1.83-1.416-4.1-2.264-6.618-2.264C8.703,46.133,3.64,51.196,3.64,57.4c0,6.204,5.063,11.267,11.267,11.267    c6.204,0,11.267-5.063,11.267-11.267c0-0.298-0.028-0.591-0.07-0.88l13.08-7.715c1.83,1.416,4.1,2.264,6.618,2.264    c6.204,0,11.267-5.063,11.267-11.267S51.936,33.793,45.732,33.793z"
    />
  </g>
</svg>
